<svg viewBox="0 0 504 504" xmlns="http://www.w3.org/2000/svg"><circle cx="252" cy="252" fill="#cac8c9" r="191.5"/><path d="m184.8 13.9c-11.6 4.4-34 26.1-35.2 34s1.6 23 2.8 26.7 2.2 7.3 2.6 9.8c.4 2.6 2.9 20.2 2.9 20.2-2-.6-6.9-1-6.3 2.4.6 3.3 2.6 5.9 3.3 8.4s3.1 11.8 11.8 16.9c1 4.1 2 7.7 2 7.7-9.2 7.1-26.3 21.2-27.1 42.4s3.3 28.9 5.9 35c-8.4 3.3-33 13.4-54.4 20.2s-46.6 14.1-52.4 18.1c-5.9 3.9-7.3 6.5-8.3 8.3s-2 8.6-1.8 10 2.4 5.3 3.9 7.9c-2.8 4.3-8.1 8.3-8.4 12.4-.4 4.1 4.9 12.6 5.9 16.3s1.4 9.2 2.8 13.9 4.7 7.9 5.9 10.4c1.2 2.6 2.6 5.9 4.1 6.7 1.6.8 27.1 2.6 31.2-.4 4.1-2.9 6.1-9.2 8.3-14.5 4.3-.6 9.2.6 11.4-1s12.6-19.1 17.1-26.9c16.7 2 60.5 10.2 74.4 8.4 13.9 11.8 29.1 24.6 47.5 27.7 14.1 11.4 39.5 33.2 46.4 37.7-3.9 1.8-8.3 3.9-8.3 3.9-2.6-1.4-7.1-2.8-8.8-2.8-14.7 3.9-60.7 24.8-65.6 25.3-4.9.6-8.1.2-10.8-1.2-2.8-1.4-21.4-17.3-25.3-18.7s-17.1.4-20 4.9-1.2 12-5.3 17.3c-2.7 3.4-6.1 4.1-8.8 4.7-2.8.6-16.1 2.6-19.3 7.3-3.1 4.7-2.8 17.3-.8 20.4s13.4 8.3 15.3 9.2c3.1 11.2 13.6 40.9 23.8 44.8s70.1 2.2 87.6.4 85.1-12.2 123.6-25.5c-.4-2.2-1.4-5.3-1.4-5.3 13.6-3.9 41.8-13.2 45.2-19.1.8-1.4 2.2-6.7 2.2-6.7 18.9-.6 42.8-.2 59.9-8.6 6.1-34.6 13.1-72.6 13.8-106.7.6-34.1-4-78.6-13-99.5-4.3-10-15.4-31.9-32-50.5-18.1-20.4-42.2-37.1-56.3-44.1-13.6-6.8-63.1-19.2-95.1-16.2-4-3.6-8.1-7.9-8.1-7.9-.9-9.6-1.3-14.9-1.7-17.9s-5.8-11.9-7.7-12.4c-1.9-.4-5.8 2.8-5.8 2.8-4.3-12.1-20-42.8-24.5-45.8s-16.2-1.9-20-2.3c-8-2.6-26.8-9.4-29.1-8.5z" fill="#eb0029"/><path d="m166 103.3c1.9-1.8 7-1.9 18.7-4.2 11.7-2.2 15-3.2 18.2-3.9s7.4-2 11.3-4.6 22.4-15.2 26.1-17.4c3.7-2.1 6.9-2.1 8.2.1s4 10.8 2.6 17.2c-1.5 6.4-7.4 10.5-13.3 12.4-6 1.8-15.2 2.6-16.6 2-1.4-.5-2.3-1.6-5.3-1.2s-7.1 2-8.8 4.2c-1.7 2.1-7.2 8.1-17.1 11.6-8.7 3.1-16.3-.6-20.1-6.7-3.7-5.6-4.5-9-3.9-9.5zm68.2 23.8c-6 2.5-20.9 12-23.5 13.7-2.6 1.8-5.9 11.2-2.7 9.9s35.8-14.9 44-17.6c-.7-3.8-11.6-8.5-17.8-6zm-24.4 64.5c5.5 2.8 11.5 4.9 16.4 4.5 9.2-.7 25.7-5.2 35.2-14.1 6.7-6.3 11.7-12.8 16.4-22.2 11.7-9 18.3-25.1 20.3-38.7l-2.6-2.3c2.7 0 11.8 2.1 12.4 3.7 2.3 5.5-11.9 46.8-33.2 68-20.7 20.5-43.5 20.4-48.1 19.6-4.7-.7-15.1-9-16.8-18.5zm84.8 173.9c-2.9-35.1 6-77.8 10-90.3.6 1.5 4.7 5.8 6.8 6.8-9-13.6-15.6-49-16-61.8-1.6 10 .4 25.3 3.3 37.5-9.7-16.5-31.6-24.3-51.9-25.9-24.9-1.9-54.6 15.2-53.3 37.6s24.8 40.1 57.1 40.4c24.2.2 39.1-9.2 46.6-19.6-5.2 24-8.7 56.8-6.2 76.2-4.8 1.3-9.2 2.7-12.8 4.2 1.1.8 2 1.5 2.7 1.9 8.7-3.4 34.7-10.2 44.9-11.1-7.2-.3-19.8 1.4-31.2 4.1z" fill="#2e2a25"/><path d="m234.7 334.8c2 1.6 4.1 3.3 6.4 5.2 10.1-.7 25.5-4.5 32-9.1-7.9 3.3-32 5.4-38.4 3.9zm122.2 122.6c-14.9-39.5-34.5-57.6-84.1-80.9-2.6-1.4-7.1-2.8-8.8-2.8-14.7 3.9-60.7 24.8-65.6 25.3-4.9.6-8.1.2-10.8-1.2-2.8-1.4-21.4-17.3-25.3-18.7s-17.1.4-20 4.9-1.2 12-5.3 17.3c-2.7 3.4-6.1 4.1-8.8 4.7-2.8.6-16.1 2.6-19.3 7.3-3.1 4.7-2.8 17.3-.8 20.4s13.4 8.3 15.3 9.2c3.1 11.2 13.6 40.9 23.8 44.8s70.1 2.2 87.6.4 85.1-12.2 123.6-25.5c-.6-2.1-1.5-5.2-1.5-5.2zm-206.1 18.8c-.5-1.4-2.3-6.2-3.1-8-1.7-1.2-4.6-2.7-4.9-3.9-.3-1.3-.6-7.1-.5-8.7-2.3-2.5-5.1-4.9-5.9-7-.7-2.1.6-11.1 1.1-13.3-2.5-1.5-8.1-6.3-8.1-9.8s4.6-11.4 7-13c-1.4 2.8-5.5 10.2-5.2 12.9s5.2 7.3 8.1 9.3c-.4 5-1.4 11.3-.9 13.3s5.2 6 5.8 6.7c0 2.8 0 8 .6 9.2s4.4 3.3 4.8 3.6c.7 2.2 2.1 6.8 2.8 8.1.6 1.3 4.4 4.9 5.5 5.9-1.9-.5-6.5-4-7.1-5.3zm8.9-225.7c-4.5-13.4-7.5-23.7-12.2-33.1-8.4 3.3-33 13.4-54.4 20.2-21.4 6.9-46.6 14.1-52.4 18.1-5.9 3.9-7.3 6.5-8.3 8.3s-2 8.6-1.8 10 2.4 5.3 3.9 7.9c5.1 5.4 29.5 23.4 32.2 24.1 2.8.6 7.7-1.1 9.1-2.1 1.4-1.1 10-12.3 11.5-16.5 1.5-4.3-2.2-12.7-6.2-14.8 4.5.2 10.5 10.2 8.7 15.5-1 2.8-3.7 7.2-6.4 11.1 1.8 7.3-.5 17-4.9 21.2-.9 5-3 12.9-6.9 15.4-4.3 2.8-26.3.9-30.8-1.2 4.6.9 27.3.5 29.7-1.2 2.3-1.6 4.5-7.8 4.7-11.1-8.1 1.8-34.6-3.5-40.5-9.5 7 4.3 36.8 8.4 40.9 6.7 3.8-1.6 5.9-12.5 5.7-17.5-1.6 2-3 3.6-3.7 4.2-2.3 1.7-8.5 3.7-11.2 3-2.5-.7-25.4-15.5-33.3-25.2-2.9 3.6-6.8 7-7.1 10.5-.4 4.1 4.9 12.6 5.9 16.3s1.4 9.2 2.8 13.9 4.7 7.9 5.9 10.4c1.2 2.6 2.6 5.9 4.1 6.7 1.6.8 27.1 2.6 31.2-.4 4.1-2.9 6.1-9.2 8.3-14.5 4.3-.6 9.2.6 11.4-1s12.6-19.1 17.1-26.9c1.5-3.6 4-15.6 4.2-17.4.1-1.8-7.2-14.8-9.8-17.3 4.7 2.9 11.9 14.6 11.9 17.3s-4.5 13.5-6.3 17.4c16.7 2 60.5 10.2 74.4 8.4-13.6-17.1-22.9-43.5-27.4-56.9zm-92.2 17.3c-.6-.9-7.1-4.5-9.5-5.8 2.9-.7 9.9 2.8 10.7 4.2.7 1.4 2 8 2.5 11.9-.7-1.5-3-9.4-3.7-10.3zm33.1 50.9c-3.9 1.3-9.6 0-12.6-1.8 3.8 1.2 11.3.5 14.4-1-.6 1-1.2 1.9-1.8 2.8zm-66.7-36s-.1.1 0 0c-.1.1 0 0 0 0z" fill="#2e2a25"/><g fill="#fff"><path d="m208 116.2c.9 4.8 1.9 9 2.5 9.7 1.6 1 3 1.7 4.2 2.1-2-4.8-4.7-12-6.7-11.8zm-27.1 52c-6.7-6.8-11.1-23.3-12.2-28.2-9.1 7-25.8 20.8-27 41.5 1.1-2.8 3-4.9 6.1-6.5 4.5-2.4 23-5.7 33.1-6.8zm15.7-66.7c2-.5 4.7-.1 5.8.3-.7 3-4.3 7.5-6.4 7.9s-8.6 1.1-11 .5c-2.3-.5-4.6-2.9-3.3-3.9 1.3-1.1 4.6-1.8 4.6-1.8 2.1 2.8 9 2.8 10.3-3zm26.8-11.1c-1.5.7-4.6 2-4.4 3.8s6.4 3.5 9.6 2.8 7.2-2.2 8.6-5.1 2.1-7.7 1-8.2c-1.2-.5-4.5.9-6.7 2.3 2.4 5.7-5 8.7-8.1 4.4zm-12.8 57.5c8.6-3.4 28.5-11.7 38.7-15.3-.4-.5-1-1-1.7-1.5-2.5-.1-8.1 1.1-9.9 1.8 1.8-1.5 5.3-2.9 7.5-3.3-2.8-1.4-6.5-2.1-9.8-.8-5.4 2.2-21.5 11.5-23 12.7-.6.5-.2 1.4.2 1.4 1.2-.5 2.2-.6 2.8-.4-1.4.6-2.8 1.4-3 1.7-.6.7-1.5 2.1-1.8 3.7zm-20.8-28.4c-1.8.7-3.6 1-5.3 1.1 2.5 7.4 6.8 13.8 14.9 16 1.9-4.4 4.2-17.2 5.3-26.2-2.8 2.6-7.7 6.5-14.9 9.1z"/><path d="m464.9 216.8c-4.3-10-15.4-31.9-32-50.5-18.1-20.4-42.2-37.1-56.3-44.1-13.6-6.8-63.1-19.2-95.1-16.2-4-3.6-8.1-7.9-8.1-7.9-.9-9.6-1.3-14.9-1.7-17.9s-5.8-11.9-7.7-12.4c-1.9-.4-5.8 2.8-5.8 2.8-4.3-12.1-20-42.8-24.5-45.8s-16.2-1.9-20-2.3c-7.9-2.6-26.7-9.4-29-8.5-4.3 1.7-10.2 5.7-15.9 10.6-.9 2.9-1.6 6.6-1.7 10.9 3.2-4.9 8.7-10.5 11.2-12 3.1-1.9 12.9-4.7 16.6-4-1.3 4-1.6 12-.3 18.6 0 0-2.1 1-3.3 2-.3-2.1-1.9-7-3.8-10.4-9.2-.7-16.2 4.4-20.2 10.5.1 1.6.4 3.3.7 5 3.5-8.6 15.2-13.9 16.6-13.5 1.6.4 4.9 6.8 5.1 9.7-.7-2.1-4.6-7.3-6.1-7.5-4.3-.7-12.7 9-12.6 11.2s5.5 9.5 8.9 11.8c-3.4.2-9.1-2.8-10.3-5.1-1.7 11.2-.4 32.1 6.8 49 2.3-.4 5-.8 8.2-1.4 10.2-2 14-2.9 17-3.7-3.6-3.4-9-9-10.2-11.5 2.1 2.2 7.3 7.1 12.5 11 2.7-.7 5.8-1.7 8.9-3.5.3-5.4.5-11.8 1-15.6.3 4.3.5 9.9.7 14.6 4.6-3 22.1-15.1 25.7-17.1 3.7-2.1 6.9-2.1 8.2.1s4 10.8 2.6 17.2c-1.5 6.4-7.4 10.5-13.3 12.4-6 1.8-15.2 2.6-16.6 2-1.4-.5-2.3-1.6-5.3-1.2s-7.1 2-8.8 4.2l-.3.3c.1.4.1.8.2 1.2 2.8 5.5 7.6 15 9.5 19 .4.1.7.1.9.2 1.2.1 4.4-1.1 5.2-1.7.9-.6 3.7-5.1 4.8-7.2-1.3-2.3-3.1-6.3-3.7-7.1 2.5 1.4 6.2 5.9 6.2 6.9 0 .9-.7 7.7-1 10.5 2.1-1.2 4.1-2.2 5.5-2.7 6.2-2.6 17.1 2.2 17.7 6.1-5.1 1.7-19.7 7.6-30.8 12.2.1 2.2 1 3.8 3.1 4.2.2 6.6 2.1 30.5 3.1 35.1.7 3.4 3.6 7.4 6 10.4 9.1-1.9 20.6-6.1 27.9-13 6.7-6.3 11.7-12.8 16.4-22.2 3-8.8 5.2-19.6 3.9-26-2-9.7-9.2-27.6-11.4-35 2.9 3.9 7 15.2 8.8 19.7 3.6 5 10.6 13.1 15.2 17.3 1.8-5 3.1-10 3.8-14.8l-2.6-2.3c-4.3-3.6-9.5-8-12.2-11.1 5 1.3 18.1 4.3 24.6 14.8.6 1.4.1 5.2-1.3 10.3 12.4 5.1 28.9 16.9 36.4 19 14.7 4.2 32.6 2.6 45.7 7 20.5 7 42.4 28 51.3 46.4 6.1 12.5 4.2 24 .6 34.5-3.5 10.5-17.4 42.2-31.8 60.6 9.8-6.2 23.3-16 28-22.2-3.6 32-32.3 131-43.1 166 4.3-2.1 7.4-4.1 8.4-5.8.8-1.4 2.2-6.7 2.2-6.7 7.2-24.6 45.1-127.1 47-182.5 14.3 20.6 10.4 108.2-8.3 180.1 7.6-1.2 14.9-3.1 21.2-6.2 6.1-34.6 13.1-72.6 13.8-106.7.6-34.7-4.1-79.2-13-100.1zm-287.9-175.2c-.7.3-2 3.6-2.4 5.7-.6-.9-1.5-2.4-1.2-3.1.2-.8 4.4-5.9 5.4-6.2 1-.2 3.7 2 5.4 4.6-1.4-.3-6.5-1.3-7.2-1zm45.4 82.9c-.8-3.7-2.9-13.6-3.5-18.2 1.6 5.1 4.5 14.9 3.5 18.2zm11.5-8.4c4.3.2 12.9 2.9 17.3 9.8-3.4-3.6-13.9-8.5-17.3-9.8zm-33.6-80.4c-1.1.2-3.4 1.2-4.6 1.7-.6-2.6-.6-7.3-.2-8.6.3-1.3 5.5-6.6 8.9-7.2-1.8 3.1-3.6 7-3.8 8.1-.3 1-.3 5.4-.3 6zm34 8.5c-4.3-6-8.4-11-12-13-4.3-2.4-13.6-1-17.4-1.8-1.5 1.6-2.7 4-3.4 5.3.2-1.3 1-5.4 1.6-6.2s4.7-5.2 5.3-5.4c6.8 1.5 21.4 2.4 23.1 3.6.7.5 3.2 4.6 6.6 10.5-.7 2.3-2 5.9-3.8 7zm5.8 8.2c-1.7-2.5-3.4-4.9-5.1-7.2 2-1.3 3.7-3.6 4.6-5.3 1.1 1.9 2.2 4 3.4 6.2-.6 1.9-1.9 4.7-2.9 6.3zm5 7c-.7-.9-1.4-1.9-2.1-2.9s-1.5-2.1-2.2-3.1c1.4-1.5 3.1-3.3 3.9-4.2 1.1 2 2.1 4 3.2 6-.5 1.3-1.7 3.1-2.8 4.2zm19.1 20.2c.1 3.1.9 10.8.9 11.8-.4 1.8-1.5 3.1-1.5 3.1-1.7-7.7-5.4-15.7-9.8-22.9-1.3-2.2-4.3-6.1-7.9-10.9 1.3-1.3 2.4-2.6 3-3.5 5.7 10.7 11.4 21.9 14.7 28.9-1.5-8.6.1-15.9 2.7-12-1.3-.1-2.2 2.3-2.1 5.5z"/></g></svg>